<svg width="164" height="30" viewBox="0 0 164 30" fill="none" xmlns="http://www.w3.org/2000/svg">
<path d="M10.3006 0.503788C7.94586 1.12733 5.7989 2.35977 4.07772 4.07596C2.35653 5.79215 1.12241 7.93098 0.500687 10.2752C-1.29743 17.1038 1.928 23.4259 7.28999 26.398C7.37946 26.4448 7.47952 26.4678 7.58054 26.4649C7.68156 26.4621 7.78013 26.4333 7.86676 26.3816C7.9534 26.3298 8.02517 26.2567 8.07517 26.1693C8.12518 26.0819 8.15173 25.9832 8.15226 25.8826V14.3484C8.15226 14.2049 8.15226 14.0556 8.15226 13.9384C8.24644 9.79209 12.6961 6.69404 17.1046 8.88434C18.1175 9.3832 18.9338 10.2047 19.4236 11.2181C21.5543 15.6456 18.3671 20.0028 14.1617 20.0028C13.7039 20.0025 13.2476 19.9494 12.8021 19.8447C12.698 19.8179 12.5892 19.8152 12.484 19.8366C12.3787 19.858 12.2797 19.9031 12.1946 19.9683C12.1094 20.0335 12.0404 20.1172 11.9927 20.213C11.9449 20.3088 11.9198 20.4142 11.9192 20.5211V27.2325C11.9186 27.4411 11.9955 27.6426 12.1351 27.7983C12.2747 27.9539 12.4672 28.0528 12.6755 28.0759C13.1642 28.1294 13.6554 28.1568 14.147 28.1579C16.0055 28.1586 17.846 27.7952 19.5633 27.0882C21.2807 26.3812 22.8413 25.3446 24.156 24.0375C25.4707 22.7305 26.5138 21.1785 27.2258 19.4703C27.9377 17.7622 28.3046 15.9312 28.3053 14.0819C28.3053 5.06009 19.7797 -1.97934 10.3006 0.503788Z" fill="#622AFF"/>
<path d="M34.1706 14.1874C34.1706 9.15963 37.4078 5.16261 42.4519 5.16261C47.5785 5.16261 50.8069 9.15963 50.8069 14.1874C50.8069 19.2151 47.5697 23.2473 42.4519 23.2473C37.3989 23.2473 34.1706 19.218 34.1706 14.1874ZM48.7969 14.1874C48.7969 10.3807 46.5396 6.84048 42.4519 6.84048C38.4378 6.84048 36.1423 10.3719 36.1423 14.1874C36.1423 18.0028 38.4378 21.5723 42.4519 21.5723C46.5396 21.5723 48.7969 18.0409 48.7969 14.1874Z" fill="#262626"/>
<path d="M56.7574 20.038V29.0744C56.7529 29.1537 56.718 29.2282 56.66 29.2826C56.602 29.3371 56.5252 29.3674 56.4455 29.3672H55.2006C55.1226 29.3672 55.0477 29.3364 54.9925 29.2815C54.9373 29.2266 54.9063 29.1521 54.9063 29.0744V5.90054C54.9063 5.82288 54.9373 5.7484 54.9925 5.69348C55.0477 5.63857 55.1226 5.60772 55.2006 5.60772H56.4455C56.5252 5.60759 56.602 5.63787 56.66 5.69233C56.718 5.74679 56.7529 5.8213 56.7574 5.90054V8.30167C57.438 7.33992 58.3393 6.55348 59.3865 6.00757C60.4336 5.46166 61.5965 5.172 62.7786 5.16263C67.4019 5.16263 70.5214 8.65892 70.5214 14.1874C70.5214 19.7159 67.3931 23.2473 62.7786 23.2473C61.5896 23.2334 60.4215 22.9344 59.3733 22.3757C58.3251 21.8171 57.4278 21.0151 56.7574 20.038ZM68.5143 14.1815C68.5143 10.0088 66.3278 6.83464 62.4549 6.83464C60.0535 6.83464 57.7609 8.26068 56.7574 9.90341V18.4479C57.3842 19.3877 58.2292 20.1635 59.2208 20.7099C60.2125 21.2562 61.3217 21.5571 62.4549 21.587C66.3278 21.5723 68.5143 18.363 68.5143 14.1874V14.1815Z" fill="#262626"/>
<path d="M74.8593 19.5021V7.23286H72.2813C72.2033 7.23286 72.1284 7.20201 72.0732 7.14709C72.018 7.09218 71.987 7.0177 71.987 6.94004V5.90052C71.9908 5.82103 72.0255 5.74611 72.0836 5.6915C72.1418 5.63689 72.219 5.60685 72.299 5.6077H74.8564V1.21538C74.8544 1.17571 74.8605 1.13605 74.8744 1.09882C74.8883 1.06159 74.9096 1.02755 74.9372 0.998793C74.9647 0.970032 74.9978 0.947144 75.0345 0.931521C75.0712 0.915899 75.1107 0.907868 75.1507 0.907918H76.4308C76.472 0.905814 76.5131 0.912327 76.5515 0.927034C76.59 0.941742 76.6249 0.964316 76.654 0.993297C76.6831 1.02228 76.7058 1.05702 76.7206 1.09528C76.7354 1.13353 76.7419 1.17445 76.7398 1.21538V5.6077H79.9446C79.9845 5.60571 80.0244 5.61182 80.0618 5.62564C80.0992 5.63947 80.1334 5.66072 80.1623 5.68811C80.1912 5.7155 80.2142 5.74846 80.2299 5.78497C80.2456 5.82149 80.2537 5.8608 80.2537 5.90052V6.92539C80.2558 6.96633 80.2492 7.00724 80.2344 7.0455C80.2197 7.08375 80.197 7.1185 80.1678 7.14748C80.1387 7.17646 80.1038 7.19903 80.0653 7.21374C80.0269 7.22845 79.9858 7.23496 79.9446 7.23286H76.7575V19.218C76.7575 20.6089 77.3313 21.5606 78.5497 21.5606C79.1535 21.5522 79.7378 21.3464 80.2124 20.975C80.2479 20.9464 80.2896 20.9265 80.3342 20.9168C80.3787 20.907 80.4249 20.9077 80.4692 20.9188C80.5134 20.9299 80.5544 20.951 80.5891 20.9806C80.6237 21.0102 80.6509 21.0473 80.6686 21.0892L81.0983 21.9618C81.1306 22.0208 81.1415 22.0891 81.1292 22.1553C81.1169 22.2214 81.082 22.2813 81.0306 22.3249C80.3802 22.8783 79.5797 23.2385 78.2642 23.2385C75.9688 23.2473 74.8593 21.8563 74.8593 19.5021Z" fill="#262626"/>
<path d="M83.1378 1.46423C83.1447 1.0901 83.2992 0.733674 83.5679 0.471831C83.8365 0.209989 84.1979 0.0637088 84.5739 0.064541C84.7609 0.061038 84.9467 0.0946547 85.1204 0.163426C85.2941 0.232196 85.4524 0.334741 85.5858 0.465065C85.7192 0.595388 85.8252 0.750874 85.8976 0.922433C85.9699 1.09399 86.0072 1.27818 86.0071 1.46423C86.0064 1.8422 85.8551 2.20447 85.5865 2.47174C85.3179 2.739 84.9538 2.8895 84.5739 2.89027C84.1964 2.88137 83.8367 2.72836 83.5693 2.46291C83.302 2.19746 83.1475 1.83989 83.1378 1.46423ZM83.641 22.521V5.90047C83.641 5.86076 83.6491 5.82144 83.6648 5.78493C83.6805 5.74841 83.7035 5.71546 83.7324 5.68807C83.7613 5.66067 83.7955 5.63942 83.8329 5.6256C83.8703 5.61177 83.9102 5.60567 83.95 5.60765H85.1949C85.2348 5.60567 85.2746 5.61177 85.312 5.6256C85.3495 5.63942 85.3837 5.66067 85.4126 5.68807C85.4415 5.71546 85.4645 5.74841 85.4802 5.78493C85.4959 5.82144 85.5039 5.86076 85.5039 5.90047V22.5122C85.506 22.5532 85.4995 22.5941 85.4847 22.6323C85.4699 22.6706 85.4472 22.7053 85.4181 22.7343C85.389 22.7633 85.354 22.7859 85.3156 22.8006C85.2771 22.8153 85.236 22.8218 85.1949 22.8197H83.95C83.9089 22.8218 83.8678 22.8153 83.8293 22.8006C83.7909 22.7859 83.756 22.7633 83.7268 22.7343C83.6977 22.7053 83.675 22.6706 83.6602 22.6323C83.6455 22.5941 83.6389 22.5532 83.641 22.5122V22.521Z" fill="#262626"/>
<path d="M89.6269 14.1874C89.6269 9.15964 92.8641 5.16263 97.9082 5.16263C103.035 5.16263 106.26 9.15964 106.26 14.1874C106.26 19.2151 103.023 23.2473 97.9082 23.2473C92.8523 23.2473 89.6269 19.2181 89.6269 14.1874ZM104.253 14.1874C104.253 10.3807 101.996 6.8405 97.9082 6.8405C93.8941 6.8405 91.5986 10.3719 91.5986 14.1874C91.5986 18.0028 93.8941 21.5723 97.9082 21.5723C101.996 21.5723 104.253 18.0409 104.253 14.1874Z" fill="#262626"/>
<path d="M113.647 20.4303V29.0744C113.642 29.1537 113.608 29.2282 113.55 29.2826C113.492 29.3371 113.415 29.3674 113.335 29.3672H110.192C110.152 29.3692 110.112 29.3631 110.075 29.3493C110.037 29.3355 110.003 29.3142 109.974 29.2868C109.945 29.2594 109.922 29.2265 109.907 29.19C109.891 29.1534 109.883 29.1141 109.883 29.0744V5.90054C109.883 5.86082 109.891 5.82151 109.907 5.785C109.922 5.74848 109.945 5.71552 109.974 5.68813C110.003 5.66074 110.037 5.63949 110.075 5.62566C110.112 5.61184 110.152 5.60573 110.192 5.60772H113.335C113.415 5.60759 113.492 5.63787 113.55 5.69233C113.608 5.7468 113.642 5.8213 113.647 5.90054V7.95029C114.289 7.08588 115.127 6.38359 116.092 5.89993C117.057 5.41626 118.123 5.16473 119.203 5.16556C123.682 5.16556 126.872 8.52129 126.872 14.1903C126.872 19.8593 123.682 23.2502 119.203 23.2502C117.017 23.2473 115.068 22.2546 113.647 20.4303ZM123.014 14.1874C123.014 10.8346 121.066 8.49201 118.091 8.49201C116.325 8.49201 114.506 9.49053 113.647 10.776V17.5695C114.471 18.852 116.334 19.912 118.091 19.912C121.066 19.9325 123.014 17.5402 123.014 14.1874Z" fill="#262626"/>
<path d="M140.53 22.5122V20.931C139.241 22.4273 137.199 23.2472 134.904 23.2472C132.108 23.2472 128.918 21.3205 128.918 17.5401C128.918 13.546 132.073 11.9062 134.904 11.9062C137.258 11.9062 139.241 12.6559 140.53 14.117V11.549C140.53 9.55196 138.847 8.32797 136.481 8.32797C134.672 8.31375 132.93 9.01034 131.634 10.2664C131.601 10.2988 131.561 10.3233 131.517 10.3381C131.473 10.353 131.426 10.3578 131.38 10.3521C131.334 10.3465 131.29 10.3306 131.251 10.3056C131.212 10.2807 131.179 10.2473 131.154 10.2079L129.907 8.15813C129.87 8.09647 129.856 8.02442 129.866 7.9537C129.876 7.88298 129.91 7.81777 129.962 7.76868C131.937 5.9649 134.377 5.15964 137.055 5.15964C140.925 5.15964 144.294 6.76723 144.294 11.3675V22.5122C144.297 22.5532 144.29 22.5941 144.275 22.6323C144.26 22.6706 144.238 22.7053 144.209 22.7343C144.18 22.7633 144.145 22.7859 144.106 22.8006C144.068 22.8153 144.027 22.8218 143.985 22.8197H140.842C140.802 22.8201 140.761 22.8124 140.723 22.7971C140.685 22.7819 140.651 22.7593 140.622 22.7307C140.593 22.7021 140.57 22.6681 140.554 22.6306C140.539 22.5931 140.53 22.5529 140.53 22.5122ZM140.53 18.8959V16.2605C139.648 15.0892 138.023 14.4772 136.41 14.4772C134.297 14.4772 132.685 15.7246 132.685 17.5811C132.685 19.4376 134.297 20.6821 136.41 20.6821C138.023 20.6792 139.636 20.073 140.53 18.8959Z" fill="#262626"/>
<path d="M148.214 26.5766C148.221 26.533 148.238 26.4913 148.262 26.4545C148.287 26.4176 148.319 26.3865 148.356 26.3631C148.394 26.3398 148.436 26.3248 148.481 26.3192C148.525 26.3136 148.569 26.3175 148.612 26.3307C148.969 26.4341 149.338 26.4893 149.709 26.4946C150.928 26.4946 151.716 26.1374 152.217 24.9954L153.079 23.0335L146.119 6.01762C146.095 5.97054 146.084 5.91781 146.087 5.86502C146.091 5.81224 146.109 5.76137 146.139 5.71782C146.169 5.67428 146.21 5.63968 146.259 5.61771C146.307 5.59573 146.361 5.5872 146.413 5.59303H149.795C149.859 5.5895 149.922 5.60673 149.975 5.64213C150.028 5.67753 150.068 5.72916 150.089 5.78922L155.068 18.5035L160.045 5.78922C160.066 5.72916 160.106 5.67753 160.159 5.64213C160.212 5.60673 160.275 5.5895 160.339 5.59303H163.682C163.734 5.59159 163.785 5.60299 163.831 5.62618C163.877 5.64937 163.916 5.68362 163.945 5.72581C163.975 5.768 163.993 5.8168 163.998 5.86776C164.004 5.91873 163.996 5.97024 163.977 6.01762L155.798 25.9295C154.621 28.8577 152.561 29.7801 149.883 29.8182C149.27 29.8054 148.659 29.7437 148.055 29.6337C148.016 29.6274 147.978 29.6132 147.944 29.5919C147.91 29.5706 147.881 29.5426 147.859 29.5097C147.836 29.4768 147.821 29.4397 147.813 29.4006C147.805 29.3615 147.806 29.3212 147.814 29.2823L148.214 26.5766Z" fill="#262626"/>
</svg>
