<svg width="11" height="12" viewBox="0 0 11 12" fill="none" xmlns="http://www.w3.org/2000/svg">
<path d="M10.0833 8.255V9.63C10.0839 9.75765 10.0577 9.884 10.0066 10.001C9.95544 10.1179 9.88044 10.2229 9.78638 10.3092C9.69232 10.3955 9.58127 10.4612 9.46035 10.5021C9.33943 10.543 9.21131 10.5582 9.08418 10.5467C7.67381 10.3934 6.31905 9.91149 5.12876 9.13959C4.02135 8.43589 3.08246 7.497 2.37876 6.38959C1.60417 5.19389 1.12212 3.83254 0.971677 2.41584C0.960223 2.28909 0.975286 2.16135 1.01591 2.04075C1.05653 1.92014 1.12181 1.80932 1.20761 1.71533C1.29341 1.62134 1.39784 1.54625 1.51425 1.49483C1.63066 1.44341 1.7565 1.41679 1.88376 1.41667H3.25876C3.48119 1.41448 3.69683 1.49325 3.86548 1.63829C4.03414 1.78333 4.1443 1.98475 4.17543 2.205C4.23346 2.64503 4.34109 3.07709 4.49626 3.49292C4.55793 3.65697 4.57127 3.83526 4.53472 4.00666C4.49816 4.17806 4.41324 4.33539 4.29001 4.46L3.70793 5.04209C4.36039 6.18955 5.31047 7.13962 6.45793 7.79209L7.04001 7.21C7.16463 7.08678 7.32196 7.00185 7.49336 6.9653C7.66476 6.92874 7.84304 6.94209 8.00709 7.00375C8.42293 7.15892 8.85498 7.26655 9.29501 7.32459C9.51765 7.356 9.72099 7.46814 9.86634 7.63969C10.0117 7.81124 10.0889 8.03023 10.0833 8.255Z" stroke="#5125CE" stroke-width="0.916667" stroke-linecap="round" stroke-linejoin="round"/>
</svg>
